HIERARCHY
ROOT Hips
{
 OFFSET 0.000000 0.000000 0.000000
 CHANNELS 6 Xposition Yposition Zposition Yrotation Xrotation Zrotation
 JOINT Chest
 {
  OFFSET 0.000000 9.585900 0.002600
  CHANNELS 3 Yrotation Xrotation Zrotation
  JOINT Chest2
  {
   OFFSET 0.000000 9.601200 -0.005300
   CHANNELS 3 Yrotation Xrotation Zrotation
   JOINT Chest3
   {
    OFFSET 0.000000 9.561800 0.000000
    CHANNELS 3 Yrotation Xrotation Zrotation
    JOINT Chest4
    {
     OFFSET 0.000000 9.552100 0.000000
     CHANNELS 3 Yrotation Xrotation Zrotation
     JOINT Neck
     {
      OFFSET 0.000000 14.453000 0.000000
      CHANNELS 3 Yrotation Xrotation Zrotation
      JOINT Head
      {
       OFFSET 0.000000 8.936500 -0.011300
       CHANNELS 3 Yrotation Xrotation Zrotation
       End Site
       {
        OFFSET 0.000000 17.073600 -0.006000
       }
      }
     }
     JOINT RightCollar
     {
      OFFSET -2.921100 9.558500 0.000000
      CHANNELS 3 Yrotation Xrotation Zrotation
      JOINT RightShoulder
      {
       OFFSET -13.519700 0.000000 0.000000
       CHANNELS 3 Yrotation Xrotation Zrotation
       JOINT RightElbow
       {
        OFFSET 0.000000 -29.696600 0.000000
        CHANNELS 3 Yrotation Xrotation Zrotation
        JOINT RightWrist
        {
         OFFSET 0.000000 -24.004700 0.000000
         CHANNELS 3 Yrotation Xrotation Zrotation
         End Site
         {
          OFFSET 0.000000 -17.728500 0.000000
         }
        }
       }
      }
     }
     JOINT LeftCollar
     {
      OFFSET 2.921100 9.558500 0.000000
      CHANNELS 3 Yrotation Xrotation Zrotation
      JOINT LeftShoulder
      {
       OFFSET 13.519700 0.000000 0.000000
       CHANNELS 3 Yrotation Xrotation Zrotation
       JOINT LeftElbow
       {
        OFFSET 0.000000 -29.696600 0.000000
        CHANNELS 3 Yrotation Xrotation Zrotation
        JOINT LeftWrist
        {
         OFFSET 0.000000 -24.004700 0.000000
         CHANNELS 3 Yrotation Xrotation Zrotation
         End Site
         {
          OFFSET 0.000000 -17.728500 0.000000
         }
        }
       }
      }
     }
    }
   }
  }
 }
 JOINT RightHip
 {
  OFFSET -7.771700 -0.012900 -0.001300
  CHANNELS 3 Yrotation Xrotation Zrotation
  JOINT RightKnee
  {
   OFFSET 0.000000 -40.869800 0.001200
   CHANNELS 3 Yrotation Xrotation Zrotation
   JOINT RightAnkle
   {
    OFFSET 0.000000 -39.717900 0.002100
    CHANNELS 3 Yrotation Xrotation Zrotation
    JOINT RightToe
    {
     OFFSET 0.000000 -4.965400 11.033500
     CHANNELS 3 Yrotation Xrotation Zrotation
     End Site
     {
      OFFSET 0.000000 -1.423100 5.872300
     }
    }
   }
  }
 }
 JOINT LeftHip
 {
  OFFSET 7.771700 -0.012900 -0.001300
  CHANNELS 3 Yrotation Xrotation Zrotation
  JOINT LeftKnee
  {
   OFFSET 0.000000 -40.869800 0.001200
   CHANNELS 3 Yrotation Xrotation Zrotation
   JOINT LeftAnkle
   {
    OFFSET 0.000000 -39.717900 0.002100
    CHANNELS 3 Yrotation Xrotation Zrotation
    JOINT LeftToe
    {
     OFFSET 0.000000 -4.965400 11.033500
     CHANNELS 3 Yrotation Xrotation Zrotation
     End Site
     {
      OFFSET 0.000000 -1.423100 5.872300
     }
    }
   }
  }
 }
}
MOTION
Frames: 16
Frame Time: 0.008333
0.000000 85.388000 0.000000 0.000000 -5.767877 0.000000 0.000000 11.653817 0.000000 0.000000 -5.885947 0.000000 0.000000 -0.000000 0.000000 0.000000 -0.000000 0.000000 0.000000 12.528835 0.000000 0.000000 0.711642 0.000000 0.000000 -0.000000 0.000000 0.000000 0.000000 -90.000000 0.000000 -2.309062 0.000000 0.000000 2.309062 0.000000 0.000000 -0.000000 0.000000 0.000000 -0.000000 90.000000 0.000000 -2.309062 0.000000 0.000000 2.309062 0.000000 0.000000 8.520406 0.000000 0.000000 1.905762 0.000000 -0.000000 -4.658285 0.000000 0.000000 -0.000000 0.000000 0.000000 8.520406 0.000000 0.000000 1.905762 0.000000 -0.000000 -4.658285 0.000000 0.000000 -0.000000 0.000000
-55.516170 57.721388 10.999710 178.930909 -46.143445 -2.791877 3.228721 22.303244 2.833633 1.653546 12.756696 1.455587 2.132779 15.938333 1.890889 1.653546 12.756621 1.455566 1.331338 19.341971 3.720104 1.322494 0.236482 6.511951 1.030520 6.908047 -0.132905 -12.458419 -13.538008 -4.463347 -42.563476 -22.009461 116.110621 1.234604 4.969667 20.862150 -9.173338 3.730114 -1.501052 7.004871 -16.035111 8.957470 64.076416 -34.869419 -122.640881 -1.412604 1.786095 -38.480827 6.262915 -25.015710 -3.718283 -34.996943 75.351438 -39.768683 6.163488 -16.723036 13.230521 0.008082 -0.074689 0.018141 -7.051736 -22.926114 4.499740 89.741505 81.221240 89.769503 0.782770 -22.164090 -18.513844 0.028372 0.052031 0.013153
-55.519140 57.721874 11.002335 178.934765 -46.148160 -2.799802 3.221784 22.315299 2.819080 1.650771 12.763345 1.451290 2.129042 15.946959 1.885265 1.632028 12.783013 1.431646 1.388646 19.348848 3.790157 1.347080 0.228070 6.533777 1.059086 6.864256 -0.124741 -12.441894 -13.524808 -4.470372 -42.442857 -22.096681 115.991135 1.244714 4.977760 20.853891 -9.143271 3.695219 -1.481340 6.997108 -15.982558 8.982116 63.988724 -34.861909 -122.616755 -1.441251 1.791751 -38.560706 6.265574 -25.008610 -3.702956 -35.007920 75.338413 -39.789319 6.146019 -16.712797 13.245511 0.003876 -0.070837 0.017248 -7.060108 -22.921784 4.501776 89.738743 81.217711 89.761974 0.780705 -22.164469 -18.508374 0.031066 0.053414 0.010836
-55.521485 57.722617 11.005537 178.942184 -46.155584 -2.816320 3.217968 22.330752 2.814271 1.647988 12.769468 1.446849 2.108903 15.967296 1.850547 1.646889 12.775229 1.440174 1.423947 19.401965 3.875329 1.375215 0.189967 6.532360 1.084714 6.838569 -0.104749 -12.426544 -13.481101 -4.577660 -42.387946 -22.157912 115.985548 1.257176 4.982295 20.846722 -9.133466 3.679946 -1.466843 7.006835 -15.971784 8.999896 63.868157 -34.844582 -122.569917 -1.478145 1.799420 -38.648804 6.259963 -24.998941 -3.683864 -34.995178 75.329434 -39.787395 6.152730 -16.709127 13.252043 -0.008690 -0.065200 0.013380 -7.076347 -22.915202 4.511556 89.752826 81.214010 89.769273 0.786315 -22.164312 -18.509345 0.025097 0.055946 0.011071
-55.525637 57.722466 11.010113 178.940227 -46.157879 -2.816047 3.214565 22.332961 2.797671 1.647126 12.775554 1.440153 2.111764 15.967842 1.851072 1.639857 12.780921 1.426688 1.450583 19.415553 3.923519 1.434200 0.261589 6.695348 1.084608 6.831772 -0.113745 -12.383169 -13.417938 -4.731043 -42.397427 -22.194232 116.070102 1.270411 4.985986 20.842395 -9.129191 3.672979 -1.453795 6.991298 -15.904777 9.017679 63.822004 -34.860059 -122.586847 -1.521209 1.809086 -38.748146 6.264711 -24.993224 -3.677774 -34.951639 75.318074 -39.756203 6.133781 -16.700110 13.267398 -0.003534 -0.059078 0.012191 -7.086048 -22.916047 4.512934 89.756753 81.219014 89.763290 0.791379 -22.159935 -18.505851 0.020311 0.055267 0.009998
-55.529089 57.722950 11.014703 178.943736 -46.166842 -2.823125 3.207826 22.329992 2.770666 1.643545 12.784144 1.427547 2.123415 15.972264 1.863177 1.648879 12.782648 1.436636 1.461019 19.426978 3.950640 1.469880 0.301424 6.800663 1.045148 6.812990 -0.161321 -12.310314 -13.358979 -4.802297 -42.404915 -22.258235 116.098450 1.286112 4.995748 20.847595 -9.133657 3.670963 -1.450922 6.929010 -15.794903 9.030207 63.856192 -34.912273 -122.646340 -1.569790 1.819777 -38.857720 6.262564 -24.981645 -3.671762 -34.933178 75.306228 -39.740886 6.136353 -16.693336 13.273071 -0.006193 -0.056277 0.009954 -7.102696 -22.909438 4.517715 89.733541 81.223129 89.732784 0.791334 -22.150552 -18.508702 0.019255 0.052747 0.012899
-55.531188 57.725257 11.018116 178.957317 -46.192266 -2.843619 3.205095 22.344996 2.766881 1.642652 12.789929 1.427904 2.115063 15.975291 1.844252 1.660256 12.786165 1.451962 1.475596 19.428291 3.969689 1.482119 0.316725 6.841714 1.041089 6.794949 -0.177032 -12.283288 -13.327966 -4.823618 -42.382591 -22.359343 116.067558 1.309279 5.009950 20.864155 -9.137567 3.665256 -1.471958 6.916923 -15.771308 9.066477 63.785376 -34.926760 -122.640819 -1.624454 1.828793 -38.970393 6.248686 -24.954725 -3.656582 -34.915509 75.293555 -39.725795 6.138152 -16.678615 13.277473 -0.006635 -0.060357 0.008933 -7.120966 -22.883916 4.527143 89.725270 81.226336 89.720753 0.781139 -22.145411 -18.503361 0.028468 0.047624 0.011332
-55.533008 57.726788 11.022628 178.967622 -46.213885 -2.861088 3.204321 22.360490 2.770891 1.640991 12.785664 1.415547 2.113953 15.979627 1.839257 1.641092 12.791169 1.418900 1.518891 19.442251 4.038540 1.498669 0.321698 6.867780 1.067480 6.775151 -0.155587 -12.259800 -13.294625 -4.844385 -42.375528 -22.465457 116.047142 1.340842 5.024637 20.889456 -9.106106 3.667137 -1.444114 6.899135 -15.747103 9.088457 63.763236 -34.942116 -122.648880 -1.666061 1.872098 -39.109474 6.239977 -24.929245 -3.641970 -34.904526 75.280106 -39.715084 6.140762 -16.672298 13.282964 -0.005564 -0.058087 0.005710 -7.137600 -22.862612 4.536332 89.720055 81.227954 89.708971 0.786591 -22.140223 -18.503253 0.025390 0.047353 0.010847
-55.534102 57.728352 11.027388 178.975387 -46.238760 -2.878381 3.206163 22.378408 2.777663 1.641455 12.775318 1.397947 2.116683 15.986238 1.839710 1.644571 12.798218 1.430602 1.521179 19.464680 4.076663 1.524254 0.339074 6.926106 1.067940 6.753916 -0.170398 -12.210585 -13.256709 -4.960992 -42.439485 -22.514770 116.105863 1.376997 5.038748 20.922432 -9.102600 3.660941 -1.455617 6.848647 -15.693806 9.117921 63.787841 -34.972085 -122.682386 -1.711788 1.915235 -39.249472 6.231433 -24.902109 -3.623142 -34.903621 75.263654 -39.714874 6.146862 -16.662402 13.290474 -0.001205 -0.058248 0.001381 -7.161880 -22.838588 4.548895 89.741340 81.225853 89.715881 0.792745 -22.134670 -18.502718 0.026760 0.045384 0.008955
-55.535713 57.729750 11.032361 178.982069 -46.266120 -2.889076 3.207396 22.386499 2.769715 1.648491 12.775578 1.395262 2.116492 15.997959 1.849190 1.642518 12.800754 1.429135 1.529299 19.476052 4.100748 1.537854 0.369366 7.001640 1.072289 6.732526 -0.182621 -12.198418 -13.235643 -4.997771 -42.457651 -22.601553 116.102718 1.413871 5.054224 20.957907 -9.100344 3.649862 -1.468789 6.819104 -15.672091 9.150217 63.677599 -34.988681 -122.703180 -1.792567 1.893373 -39.313351 6.226593 -24.873567 -3.613691 -34.891426 75.251860 -39.701599 6.146892 -16.650567 13.299293 -0.008757 -0.059075 -0.002791 -7.177361 -22.812675 4.552320 89.742552 81.224108 89.706304 0.799798 -22.127921 -18.500855 0.023721 0.044699 0.007097
-55.537893 57.730081 11.038284 178.990220 -46.289037 -2.894956 3.210038 22.386577 2.758374 1.655484 12.775733 1.392795 2.113635 16.012588 1.858819 1.643780 12.798400 1.411839 1.539241 19.491535 4.141954 1.541603 0.401962 7.079486 1.074429 6.715448 -0.176071 -12.195844 -13.212820 -5.004666 -42.474550 -22.706318 116.090397 1.449329 5.074951 20.989312 -9.100495 3.652942 -1.452632 6.790592 -15.661808 9.170257 63.608388 -35.001522 -122.725632 -1.852170 1.897197 -39.392319 6.225171 -24.849860 -3.611995 -34.878367 75.242359 -39.685502 6.137065 -16.635543 13.312630 0.000608 -0.061701 -0.010919 -7.191910 -22.790659 4.547592 89.690122 81.216742 89.645919 0.804716 -22.117050 -18.503362 0.020979 0.046892 0.007431
-55.538918 57.728406 11.046082 178.994735 -46.299942 -2.903003 3.220190 22.372163 2.752448 1.661928 12.773175 1.393469 2.113594 16.022112 1.851514 1.647040 12.801493 1.408340 1.547415 19.504062 4.182188 1.542699 0.463732 7.223829 1.073130 6.713849 -0.151789 -12.192275 -13.207060 -5.019538 -42.501144 -22.807409 116.092604 1.481273 5.097434 21.010845 -9.103784 3.657801 -1.432155 6.758017 -15.654264 9.191269 63.559247 -35.011653 -122.744998 -1.897522 1.908172 -39.477441 6.219328 -24.841151 -3.607193 -34.858051 75.235257 -39.664798 6.141274 -16.623037 13.319060 0.000354 -0.063856 -0.017035 -7.215779 -22.784660 4.561793 89.713601 81.214869 89.650566 0.799468 -22.110273 -18.501771 0.028163 0.046014 0.009186
-55.540236 57.728948 11.051456 179.009419 -46.334257 -2.914310 3.237504 22.350007 2.745228 1.648439 12.813677 1.407643 2.122226 16.012920 1.837641 1.657825 12.778981 1.375076 1.555897 19.546045 4.259820 1.538795 0.498976 7.319501 1.061886 6.743027 -0.096609 -12.183842 -13.216926 -5.050873 -42.538339 -22.881893 116.111680 1.505564 5.116485 21.019877 -9.114844 3.682168 -1.399993 6.712330 -15.635398 9.225352 63.545761 -35.017656 -122.743619 -1.926266 1.938667 -39.589485 6.205688 -24.806987 -3.605391 -34.835904 75.228395 -39.641941 6.150645 -16.610392 13.319686 0.004869 -0.064867 -0.012693 -7.230947 -22.753990 4.564119 89.725115 81.214762 89.651733 0.791467 -22.107403 -18.497663 0.025154 0.046030 0.010484
-55.541172 57.733611 11.052586 179.043234 -46.407113 -2.939390 3.223184 22.415376 2.748722 1.652458 12.806692 1.403496 2.129823 16.001395 1.825519 1.659800 12.772355 1.369564 1.562293 19.571924 4.305160 1.532990 0.524162 7.391090 1.068605 6.725892 -0.109896 -12.185801 -13.223691 -5.068340 -42.580740 -22.911416 116.127169 1.522081 5.132990 21.020672 -9.104345 3.654236 -1.420872 6.641941 -15.590333 9.285386 63.478551 -35.027143 -122.759939 -1.965907 1.931442 -39.631393 6.178650 -24.731550 -3.599949 -34.813271 75.225413 -39.619216 6.166760 -16.596644 13.319011 0.000820 -0.074916 -0.011541 -7.254036 -22.683834 4.560662 89.745962 81.216458 89.661939 0.788145 -22.099757 -18.493745 0.023159 0.039926 0.011367
-55.541746 57.734920 11.056504 179.059399 -46.458153 -2.952125 3.230948 22.424011 2.745440 1.669267 12.764538 1.386512 2.135959 16.006562 1.819387 1.657520 12.810902 1.398434 1.564826 19.574166 4.349292 1.526359 0.569891 7.443495 1.068047 6.743322 -0.092959 -12.193809 -13.213399 -5.061411 -42.598974 -22.953859 116.138821 1.587719 5.151665 21.028749 -9.103389 3.641908 -1.426634 6.578092 -15.563546 9.324522 63.408487 -35.025902 -122.769268 -2.002045 1.928342 -39.656753 6.165801 -24.680313 -3.594825 -34.808611 75.221010 -39.612667 6.170387 -16.584233 13.327576 0.004987 -0.081306 -0.018746 -7.263547 -22.635168 4.557761 89.756335 81.217796 89.667569 0.789477 -22.097097 -18.493705 0.022486 0.039157 0.012258
-55.541971 57.735294 11.060847 179.070827 -46.506605 -2.961277 3.251002 22.380178 2.738753 1.660084 12.814007 1.396490 2.139166 16.010407 1.817057 1.660132 12.813963 1.396479 1.568822 19.593064 4.384961 1.521858 0.586752 7.460568 1.064315 6.769084 -0.068604 -12.186360 -13.251408 -5.078134 -42.619820 -22.958106 116.137413 1.642126 5.163458 21.041571 -9.107589 3.655955 -1.415714 6.546819 -15.555729 9.339370 63.344662 -35.018556 -122.785775 -2.026810 1.936266 -39.687732 6.150430 -24.632734 -3.592032 -34.784718 75.214617 -39.586861 6.183111 -16.570404 13.330385 0.005698 -0.085258 -0.025790 -7.270428 -22.589463 4.557023 89.750384 81.214630 89.652345 0.784630 -22.092158 -18.487765 0.019100 0.039708 0.011341
